<svg xmlns="http://www.w3.org/2000/svg" width="192" height="192" viewBox="0 0 512 512" role="img" aria-label="Ultimate Football 26 World Cup trophy logo">
  <defs>
    <radialGradient id="bg" cx="50%" cy="34%" r="70%">
      <stop offset="0" stop-color="#0f9f6e"/>
      <stop offset="0.55" stop-color="#064e3b"/>
      <stop offset="1" stop-color="#020617"/>
    </radialGradient>
    <linearGradient id="gold" x1="164" y1="84" x2="354" y2="416" gradientUnits="userSpaceOnUse">
      <stop offset="0" stop-color="#fff7ad"/>
      <stop offset="0.28" stop-color="#facc15"/>
      <stop offset="0.68" stop-color="#f59e0b"/>
      <stop offset="1" stop-color="#b45309"/>
    </linearGradient>
    <linearGradient id="shine" x1="206" y1="108" x2="282" y2="376" gradientUnits="userSpaceOnUse">
      <stop offset="0" stop-color="#ffffff" stop-opacity="0.82"/>
      <stop offset="1" stop-color="#ffffff" stop-opacity="0"/>
    </linearGradient>
    <filter id="shadow" x="-30%" y="-30%" width="160%" height="170%">
      <feDropShadow dx="0" dy="16" stdDeviation="18" flood-color="#000000" flood-opacity="0.35"/>
    </filter>
  </defs>
  <rect width="512" height="512" rx="96" fill="url(#bg)"/>
  <circle cx="256" cy="256" r="192" fill="none" stroke="#ffffff" stroke-opacity="0.1" stroke-width="10"/>
  <path d="M86 250c46-43 97-65 151-66 67-1 116 22 190 10" fill="none" stroke="#7dd3fc" stroke-opacity="0.42" stroke-width="13" stroke-linecap="round"/>
  <path d="M92 300c76 31 140 34 194 7 45-23 83-25 134-8" fill="none" stroke="#fef08a" stroke-opacity="0.36" stroke-width="12" stroke-linecap="round"/>
  <g filter="url(#shadow)">
    <path d="M184 116c-20 25-31 57-31 91 0 62 38 116 92 136v43h-46c-13 0-24 11-24 24v24h162v-24c0-13-11-24-24-24h-46v-43c54-20 92-74 92-136 0-34-11-66-31-91-24 25-46 37-72 37s-48-12-72-37Z" fill="url(#gold)"/>
    <path d="M176 151c-24 8-42 30-42 58 0 42 33 78 78 93" fill="none" stroke="#fbbf24" stroke-width="22" stroke-linecap="round"/>
    <path d="M336 151c24 8 42 30 42 58 0 42-33 78-78 93" fill="none" stroke="#d97706" stroke-width="22" stroke-linecap="round"/>
    <path d="M212 134c-16 47-10 107 19 157 11 19 27 34 47 45-61-12-104-64-104-126 0-28 8-53 38-76Z" fill="url(#shine)"/>
    <circle cx="256" cy="219" r="55" fill="#f8fafc" stroke="#78350f" stroke-width="7"/>
    <path d="M256 176l29 21-11 34h-36l-11-34 29-21Z" fill="#111827"/>
    <path d="M211 215l27 16-8 31-32-3-10-31 23-13Zm90 0l23 13-10 31-32 3-8-31 27-16Zm-45 49l28-2 14 25-22 19h-40l-22-19 14-25 28 2Z" fill="#111827"/>
  </g>
  <text x="256" y="468" fill="#fef3c7" font-family="Arial, sans-serif" font-size="39" font-weight="900" text-anchor="middle">UF 26</text>
</svg>
